<svg width="160" height="40" viewBox="0 0 160 40" fill="none" xmlns="http://www.w3.org/2000/svg">
<g clip-path="url(#clip0_17070_4697)">
<path d="M159.2 29.7417H0V40H159.2V29.7417Z" fill="#EF7F00"/>
<path d="M159.2 0H0V29.9619H159.2V0Z" fill="#002A5B"/>
<path d="M27.0898 15.3365C27.0898 21.2832 22.5438 24.8467 16.9529 24.8467C11.362 24.8467 6.81607 21.2832 6.81607 15.3365C6.81607 9.38973 11.3863 5.72723 16.9529 5.72723C22.5195 5.72723 27.0898 9.51215 27.0898 15.3365ZM13.5255 15.4347C13.5255 17.5478 14.9352 18.9978 16.9529 18.9978C18.9707 18.9978 20.3811 17.5478 20.3811 15.4347C20.3811 13.4686 19.0678 11.8221 16.9529 11.8221C14.838 11.8221 13.5255 13.4686 13.5255 15.4347Z" fill="white"/>
<path d="M29.2231 6.02234H36.9783C40.5271 6.02234 44.1489 6.88262 44.1489 11.1587C44.1489 12.7802 43.3469 14.3776 41.7429 14.8941V15.0411C43.7359 15.7544 44.9999 17.2282 44.9999 19.4403C44.9999 23.2498 41.4996 24.5517 38.2912 24.5517H29.2231V6.02234ZM36.0058 13.149C36.9783 13.149 38.0718 13.0508 38.0718 11.7726C38.0718 10.3966 36.8325 10.4949 35.8601 10.4949H35.3982V13.149H36.0058ZM35.3982 20.1283H36.1512C37.2451 20.1283 38.8256 20.1041 38.8256 18.58C38.8256 17.0559 37.1236 17.0567 36.0548 17.0567H35.3982V20.1283Z" fill="white"/>
<path d="M47.1344 6.02234H55.1803C59.3133 6.02234 62.8132 7.79163 62.8132 12.4606C62.8132 15.2625 61.7436 16.4416 59.2643 17.2773V17.4251C59.6044 17.6956 60.0181 17.9906 60.3829 18.5309L64.3694 24.5517H56.6883L53.771 18.605H53.6495V24.5517H47.1348V6.02234H47.1344ZM53.6491 14.2303H54.1111C55.2049 14.2303 56.2992 14.0588 56.2992 12.682C56.2992 11.3053 55.3025 11.0846 54.16 11.0846H53.6495V14.2303H53.6491Z" fill="white"/>
<path d="M71.9385 24.5517H64.8889L71.2583 6.02234H78.6236L85.1626 24.5517H78.1131L77.5054 22.2422H72.4732L71.9388 24.5517H71.9385ZM76.3383 17.8429L75.5606 14.5745C75.3659 13.7882 75.244 12.9775 75.1226 12.1909H74.8793L73.6636 17.8429H76.3379H76.3383Z" fill="white"/>
<path d="M107.502 6.02795L99.4833 14.1539L98.1413 15.5518L96.7854 14.1539L88.7777 6.02795H88.6801L85.7348 24.5501H92.1628L93.1648 17.7182L98.1413 22.5753L102.999 17.7182L104.139 24.5501H110.57L107.551 6.02795H107.502Z" fill="white"/>
<path d="M89.2709 3.78528H89.1812L89.2481 3.83326L98.1199 12.8407H98.1412H98.1614L107.024 3.83326L107.086 3.78528H106.992H89.2709Z" fill="#EF7F00"/>
<path d="M118.193 24.5517H111.143L117.512 6.02234H124.878L131.417 24.5517H124.367L123.76 22.2422H118.727L118.193 24.5517H118.193ZM122.592 17.8429L121.815 14.5745C121.62 13.7882 121.498 12.9775 121.377 12.1909H121.133L119.918 17.8429H122.592H122.592Z" fill="white"/>
<path d="M151.581 6.02234L145.844 14.6973L152.383 24.5517H144.799L142.708 20.6198C142.514 20.2511 142.393 19.8823 142.319 19.4898H142.125C142.004 19.9318 141.834 20.3493 141.615 20.7676L139.573 24.5517H131.989L138.406 14.6973L132.645 6.02234H140.157L141.518 8.6519C141.786 9.14344 141.932 9.65953 142.078 10.176H142.223C142.344 9.63497 142.563 9.14344 142.806 8.6519L144.071 6.02234H151.582H151.581Z" fill="white"/>
<path d="M11.8189 36.6568H9.23306L8.86607 37.5306H7.65558L9.91698 32.434H11.1417L13.4031 37.5306H12.1858L11.8189 36.6568ZM10.5295 33.5848L9.65836 35.6525H11.3939L10.5295 33.5848Z" fill="white"/>
<path d="M16.6587 33.4461H15.1253V32.4343H19.3091V33.4461H17.775V37.5302H16.6587V33.4461Z" fill="white"/>
<path d="M25.1934 36.6568H22.608L22.2403 37.5306H21.0305L23.2923 32.434H24.5159L26.7776 37.5306H25.5604L25.1927 36.6568H25.1934ZM23.9044 33.5848L23.0333 35.6525H24.7689L23.9044 33.5848Z" fill="white"/>
<path d="M33.5486 36.9118C33.0489 37.4116 32.4035 37.6614 31.6112 37.6614C31.1452 37.6614 30.7363 37.5903 30.3836 37.4468C30.0304 37.304 29.7497 37.1067 29.5408 36.857C29.3319 36.6073 29.1757 36.3277 29.0725 36.0198C28.9698 35.7119 28.9178 35.3783 28.9178 35.019C28.9178 34.6789 28.972 34.3521 29.0796 34.0393C29.1876 33.7261 29.3491 33.4386 29.5625 33.1768C29.7759 32.9146 30.0599 32.7056 30.4123 32.5507C30.7655 32.3954 31.165 32.318 31.6116 32.318C32.3172 32.318 32.9342 32.5798 33.4623 33.1042L32.7567 33.8103C32.4734 33.5289 32.0915 33.3883 31.6116 33.3883C31.3377 33.3883 31.0951 33.4382 30.884 33.5376C30.6728 33.6369 30.5058 33.768 30.3839 33.9305C30.2613 34.0933 30.1709 34.2679 30.1134 34.4549C30.0558 34.6419 30.0274 34.8323 30.0274 35.0265C30.0274 35.2207 30.0558 35.4134 30.1134 35.5902C30.1709 35.7678 30.2587 35.9355 30.3761 36.0931C30.4942 36.2506 30.6582 36.3772 30.8698 36.4716C31.0809 36.5665 31.328 36.6133 31.6112 36.6133C31.8224 36.6133 32.0459 36.5687 32.2806 36.4788C32.516 36.3889 32.7059 36.2714 32.8501 36.1259L33.5486 36.9122V36.9118Z" fill="white"/>
<path d="M39.865 36.6568H37.28L36.913 37.5306H35.7025L37.9639 32.434H39.1882L41.45 37.5306H40.2328L39.865 36.6568ZM38.5761 33.5848L37.7049 35.6525H39.4405L38.5761 33.5848Z" fill="white"/>
<path d="M46.1245 32.434C46.6817 32.434 47.1534 32.5533 47.5394 32.791C47.9262 33.029 48.2046 33.3324 48.3751 33.7011C48.5455 34.0703 48.6303 34.4847 48.6303 34.946C48.6303 35.2913 48.5814 35.614 48.4827 35.9144C48.3844 36.2155 48.2379 36.4883 48.0436 36.7335C47.8489 36.9787 47.5876 37.1728 47.2584 37.316C46.9299 37.4596 46.5517 37.5306 46.1241 37.5306H44.0571V32.434H46.1241H46.1245ZM45.1667 36.4822H46.1245C46.3839 36.4822 46.6096 36.4376 46.8013 36.3477C46.9934 36.2578 47.1388 36.1354 47.2371 35.9801C47.3354 35.8248 47.4075 35.6608 47.4535 35.4886C47.4987 35.3163 47.5215 35.1304 47.5215 34.9313C47.5215 34.5146 47.4097 34.1647 47.1866 33.8836C46.9639 33.6022 46.6096 33.4616 46.1245 33.4616H45.1667V36.4826V36.4822Z" fill="white"/>
<path d="M55.9632 36.9337C55.4635 37.4139 54.8057 37.6546 53.9899 37.6546C53.1741 37.6546 52.5156 37.4139 52.0166 36.9337C51.517 36.4527 51.2677 35.8025 51.2677 34.9823C51.2677 34.1621 51.5173 33.5119 52.0166 33.0313C52.5156 32.5511 53.1733 32.3104 53.9899 32.3104C54.8065 32.3104 55.4639 32.5511 55.9632 33.0313C56.4621 33.5115 56.7117 34.1621 56.7117 34.9823C56.7117 35.8025 56.4621 36.4527 55.9632 36.9337ZM55.16 33.7994C54.8599 33.4865 54.4698 33.3298 53.9899 33.3298C53.51 33.3298 53.1255 33.4881 52.8231 33.8032C52.5208 34.119 52.3691 34.5123 52.3691 34.9827C52.3691 35.4531 52.5208 35.8577 52.8231 36.1656C53.1255 36.4743 53.5141 36.6284 53.9899 36.6284C54.4656 36.6284 54.8659 36.4743 55.1638 36.1656C55.4616 35.8577 55.6104 35.4636 55.6104 34.9827C55.6104 34.5017 55.4601 34.113 55.16 33.7998" fill="white"/>
<path d="M65.4707 32.434C66.0279 32.434 66.4995 32.5533 66.8856 32.791C67.2724 33.029 67.5508 33.3324 67.7212 33.7011C67.8909 34.0703 67.9765 34.4847 67.9765 34.946C67.9765 35.2913 67.9275 35.614 67.8289 35.9144C67.7306 36.2155 67.5841 36.4883 67.3897 36.7335C67.195 36.9787 66.9338 37.1728 66.6045 37.316C66.276 37.4596 65.8978 37.5306 65.4703 37.5306H63.4032V32.434H65.4703H65.4707ZM64.5128 36.4822H65.4707C65.73 36.4822 65.9558 36.4376 66.1475 36.3477C66.3396 36.2578 66.4849 36.1354 66.5832 35.9801C66.6815 35.8248 66.7537 35.6608 66.7989 35.4886C66.8448 35.3163 66.8676 35.1304 66.8676 34.9313C66.8676 34.5146 66.7559 34.1647 66.5328 33.8836C66.31 33.6022 65.9558 33.4616 65.4707 33.4616H64.5128V36.4826V36.4822Z" fill="white"/>
<path d="M74.7401 37.5306H70.9012V32.434H74.6396V33.4752H72.0037V34.4583H74.4882V35.4557H72.0037V36.4822H74.7401V37.5306Z" fill="white"/>
<path d="M85.8247 36.9118C85.3258 37.4116 84.6796 37.6614 83.8874 37.6614C83.4213 37.6614 83.0125 37.5903 82.6597 37.4468C82.3065 37.304 82.0258 37.1067 81.8169 36.857C81.608 36.6073 81.4522 36.3277 81.3487 36.0198C81.2459 35.7119 81.1939 35.3783 81.1939 35.019C81.1939 34.6789 81.2481 34.3521 81.3561 34.0393C81.4638 33.7261 81.6248 33.4386 81.8382 33.1768C82.0524 32.9146 82.3357 32.7056 82.6881 32.5507C83.0413 32.3954 83.4408 32.318 83.8874 32.318C84.5933 32.318 85.21 32.5798 85.738 33.1042L85.0324 33.8103C84.7492 33.5289 84.3676 33.3883 83.8874 33.3883C83.6142 33.3883 83.3716 33.4382 83.1597 33.5376C82.9486 33.6369 82.7823 33.768 82.6597 33.9305C82.5371 34.0933 82.4474 34.2679 82.3899 34.4549C82.3323 34.6419 82.3031 34.8323 82.3031 35.0265C82.3031 35.2207 82.3323 35.4134 82.3899 35.5902C82.4474 35.7678 82.5345 35.9355 82.6526 36.0931C82.7699 36.2506 82.934 36.3772 83.1459 36.4716C83.357 36.5665 83.6041 36.6133 83.8874 36.6133C84.0985 36.6133 84.322 36.5687 84.5574 36.4788C84.7925 36.3889 84.982 36.2714 85.1263 36.1259L85.8247 36.9122V36.9118Z" fill="white"/>
<path d="M92.8403 36.9337C92.3406 37.4139 91.6828 37.6546 90.867 37.6546C90.0512 37.6546 89.3927 37.4139 88.8937 36.9337C88.3948 36.4527 88.1448 35.8025 88.1448 34.9823C88.1448 34.1621 88.3948 33.5119 88.8937 33.0313C89.3927 32.5511 90.0504 32.3104 90.867 32.3104C91.6836 32.3104 92.341 32.5511 92.8403 33.0313C93.3392 33.5115 93.5888 34.1621 93.5888 34.9823C93.5888 35.8025 93.3392 36.4527 92.8403 36.9337ZM92.0371 33.7994C91.737 33.4865 91.3469 33.3298 90.867 33.3298C90.3871 33.3298 90.0026 33.4881 89.7002 33.8032C89.3979 34.119 89.2465 34.5123 89.2465 34.9827C89.2465 35.4531 89.3979 35.8577 89.7002 36.1656C90.0026 36.4743 90.3916 36.6284 90.867 36.6284C91.3424 36.6284 91.7434 36.4743 92.0409 36.1656C92.3387 35.8577 92.4875 35.4636 92.4875 34.9827C92.4875 34.5017 92.3372 34.113 92.0371 33.7998" fill="white"/>
<path d="M100.007 35.7466L99.9343 34.1451V32.434H101.065V37.5306H100.1L97.594 34.269L97.637 35.9434V37.5306H96.4994V32.434H97.4643L100.007 35.7466Z" fill="white"/>
<path d="M107.245 33.6645C107.111 33.5239 106.937 33.417 106.723 33.3441C106.51 33.2712 106.295 33.2353 106.079 33.2353C105.825 33.2353 105.61 33.2859 105.438 33.3876C105.265 33.4899 105.178 33.6256 105.178 33.7956C105.178 34.0091 105.266 34.156 105.441 34.2361C105.617 34.3162 105.891 34.3733 106.266 34.4073C107.558 34.5191 108.203 35.07 108.203 36.0602C108.203 36.4195 108.1 36.7263 107.894 36.9809C107.687 37.2356 107.428 37.4177 107.116 37.5272C106.803 37.636 106.458 37.6935 106.079 37.6984C105.618 37.7029 105.186 37.6156 104.782 37.4362C104.379 37.2567 104.077 36.9945 103.875 36.65L104.545 35.9438C104.727 36.1815 104.96 36.3613 105.243 36.4826C105.527 36.6039 105.808 36.6647 106.086 36.6647C106.383 36.6647 106.626 36.6088 106.813 36.4969C107 36.3851 107.094 36.2393 107.094 36.0602C107.099 35.8516 107.019 35.6922 106.853 35.5834C106.687 35.4742 106.429 35.4051 106.079 35.376C105.776 35.3465 105.518 35.3053 105.305 35.2521C105.091 35.1984 104.884 35.1164 104.682 35.0046C104.48 34.8935 104.327 34.7363 104.225 34.5353C104.121 34.3336 104.072 34.0895 104.077 33.8032C104.082 33.318 104.277 32.9383 104.664 32.6644C105.05 32.3898 105.519 32.253 106.072 32.253C106.485 32.253 106.839 32.3112 107.134 32.4275C107.43 32.5439 107.702 32.7479 107.952 33.0392L107.246 33.6652L107.245 33.6645Z" fill="white"/>
<path d="M112.143 33.4461H110.61V32.4343H114.794V33.4461H113.259V37.5302H112.143V33.4461Z" fill="white"/>
<path d="M122.025 37.5306H120.779L119.49 35.8562H118.676V37.5306H117.552V32.434H119.943C120.525 32.434 120.981 32.601 121.312 32.9361C121.644 33.2712 121.809 33.6762 121.809 34.1519C121.804 34.5304 121.72 34.8523 121.557 35.1168C121.394 35.3813 121.089 35.5936 120.642 35.7534L122.025 37.4426V37.5303V37.5306ZM118.676 33.4095V34.8946H119.958C120.198 34.8946 120.381 34.8217 120.509 34.6766C120.636 34.5308 120.7 34.3657 120.7 34.181C120.695 33.9822 120.628 33.8039 120.498 33.6464C120.369 33.4881 120.184 33.4095 119.943 33.4095H118.676Z" fill="white"/>
<path d="M129.371 32.4415V35.288C129.371 36.0311 129.181 36.605 128.799 37.01C128.417 37.415 127.888 37.6296 127.211 37.6546C126.51 37.6787 125.929 37.4868 125.468 37.0795C125.007 36.6715 124.777 36.0746 124.777 35.288V32.4415H125.893V35.288C125.893 35.7394 126.01 36.0817 126.246 36.3145C126.481 36.548 126.805 36.6545 127.218 36.6349C127.909 36.5865 128.255 36.1373 128.255 35.288V32.4415H129.371Z" fill="white"/>
<path d="M134.133 38.6373C134.224 38.7536 134.372 38.8265 134.576 38.856C134.779 38.8847 134.908 38.8265 134.961 38.6807C134.994 38.5451 134.928 38.4457 134.763 38.3819C134.597 38.3188 134.452 38.3361 134.327 38.4329L134.096 38.2583L134.327 37.6175C133.621 37.5057 133.095 37.2125 132.75 36.7369C132.404 36.2612 132.229 35.6884 132.224 35.019C132.224 34.6789 132.278 34.3529 132.386 34.0401C132.494 33.7268 132.655 33.4393 132.869 33.1768C133.082 32.9146 133.366 32.7056 133.718 32.5507C134.072 32.3954 134.471 32.318 134.918 32.318C135.623 32.318 136.24 32.5802 136.768 33.1042L136.063 33.8111C135.78 33.5289 135.398 33.3883 134.918 33.3883C134.644 33.3883 134.401 33.4382 134.19 33.5376C133.979 33.6369 133.812 33.768 133.69 33.9309C133.567 34.0933 133.477 34.2679 133.419 34.4549C133.362 34.6419 133.334 34.8323 133.334 35.0265C133.334 35.2207 133.362 35.4142 133.419 35.591C133.477 35.7678 133.565 35.9355 133.682 36.0931C133.8 36.2514 133.964 36.3772 134.176 36.4716C134.387 36.5665 134.634 36.6141 134.918 36.6141C135.129 36.6141 135.352 36.5687 135.587 36.4796C135.823 36.3897 136.012 36.2714 136.157 36.1263L136.855 36.9126C136.385 37.3837 135.784 37.6334 135.055 37.6629L134.968 37.9175C135.275 37.9323 135.487 38.0256 135.602 38.1979C135.717 38.3701 135.76 38.5677 135.731 38.791C135.702 39.0238 135.599 39.2051 135.422 39.3336C135.244 39.4616 135.046 39.5278 134.827 39.53C134.609 39.5323 134.392 39.4877 134.175 39.3955C133.96 39.3033 133.798 39.1745 133.693 39.0098L134.132 38.638L134.133 38.6373Z" fill="white"/>
<path d="M143.179 36.6568H140.594L140.227 37.5306H139.016L141.278 32.434H142.501L144.763 37.5306H143.546L143.178 36.6568H143.179ZM140.521 31.6772C140.781 31.1241 141.129 30.9053 141.566 31.0217C141.628 31.0364 141.714 31.0693 141.821 31.1199C141.93 31.1709 142.016 31.2087 142.081 31.2329C142.145 31.2575 142.214 31.2552 142.286 31.2257C142.358 31.197 142.413 31.1264 142.451 31.0145L143.092 31.3349C142.843 31.9224 142.509 32.1404 142.091 31.99C142.029 31.9708 141.951 31.9394 141.857 31.8952C141.763 31.8518 141.689 31.82 141.634 31.8004C141.578 31.7811 141.517 31.7679 141.451 31.7603C141.383 31.7531 141.324 31.7739 141.274 31.8219C141.224 31.8706 141.177 31.9436 141.134 32.0407L140.521 31.6768L140.521 31.6772ZM141.89 33.5844L141.019 35.6522H142.754L141.89 33.5844Z" fill="white"/>
<path d="M151.598 36.9337C151.099 37.4139 150.441 37.6546 149.625 37.6546C148.809 37.6546 148.151 37.4139 147.652 36.9337C147.152 36.4527 146.903 35.8025 146.903 34.9823C146.903 34.1621 147.153 33.5119 147.652 33.0313C148.152 32.5511 148.809 32.3104 149.625 32.3104C150.441 32.3104 151.099 32.5511 151.598 33.0313C152.097 33.5115 152.347 34.1621 152.347 34.9823C152.347 35.8025 152.097 36.4527 151.598 36.9337ZM150.795 33.7994C150.495 33.4865 150.105 33.3298 149.625 33.3298C149.145 33.3298 148.761 33.4881 148.458 33.8032C148.156 34.119 148.005 34.5123 148.005 34.9827C148.005 35.4531 148.156 35.8577 148.458 36.1656C148.761 36.4743 149.15 36.6284 149.625 36.6284C150.101 36.6284 150.501 36.4743 150.799 36.1656C151.097 35.8577 151.246 35.4636 151.246 34.9827C151.246 34.5017 151.095 34.113 150.795 33.7998" fill="white"/>
</g>
<defs>
<clipPath id="clip0_17070_4697">
<rect width="159.2" height="40" fill="white"/>
</clipPath>
</defs>
</svg>
